<?xml version="1.0" encoding="UTF-8" standalone="no"?>
<!-- Created with Inkscape (http://www.inkscape.org/) -->

<svg
   xmlns:dc="http://purl.org/dc/elements/1.1/"
   xmlns:cc="http://creativecommons.org/ns#"
   xmlns:rdf="http://www.w3.org/1999/02/22-rdf-syntax-ns#"
   xmlns:svg="http://www.w3.org/2000/svg"
   xmlns="http://www.w3.org/2000/svg"
   xmlns:sodipodi="http://sodipodi.sourceforge.net/DTD/sodipodi-0.dtd"
   xmlns:inkscape="http://www.inkscape.org/namespaces/inkscape"
   version="1.1"
   id="svg815"
   xml:space="preserve"
   width="29.660955mm"
   height="26.242752mm"
   viewBox="0 0 112.1044 99.185204"
   sodipodi:docname="GF logo.svg"
   inkscape:export-filename="C:\Users\Karlo\OneDrive - Geodetski fakultet\GEOF\Nastava\geof_logo.png"
   inkscape:export-xdpi="72"
   inkscape:export-ydpi="72"
   inkscape:version="0.92.4 (5da689c313, 2019-01-14)"><metadata
     id="metadata821"><rdf:RDF><cc:Work
         rdf:about=""><dc:format>image/svg+xml</dc:format><dc:type
           rdf:resource="http://purl.org/dc/dcmitype/StillImage" /><dc:title></dc:title></cc:Work></rdf:RDF></metadata><defs
     id="defs819" /><sodipodi:namedview
     pagecolor="#ffffff"
     bordercolor="#666666"
     borderopacity="1"
     objecttolerance="10"
     gridtolerance="10"
     guidetolerance="10"
     inkscape:pageopacity="0"
     inkscape:pageshadow="2"
     inkscape:window-width="1920"
     inkscape:window-height="991"
     id="namedview817"
     showgrid="false"
     units="mm"
     inkscape:zoom="2.905131"
     inkscape:cx="61.851961"
     inkscape:cy="17.364458"
     inkscape:window-x="-9"
     inkscape:window-y="-9"
     inkscape:window-maximized="1"
     inkscape:current-layer="g823" /><g
     id="g823"
     inkscape:groupmode="layer"
     inkscape:label="GF logo"
     transform="matrix(1.3333333,0,0,-1.3333333,1.3333333,97.851867)"><g
       id="g825"
       transform="scale(0.96,1)"><path
         d="m 35.653,47.7108 h 0.3541"
         style="fill:none;stroke:#202d5d;stroke-width:0.0476;stroke-linecap:butt;stroke-linejoin:bevel;stroke-miterlimit:2.61310005;stroke-dasharray:none;stroke-opacity:1"
         id="path827"
         inkscape:connector-curvature="0" /></g><g
       id="g829"
       transform="scale(0.96,1)"><path
         d="m 70.9747,49.0895 c -0.0011,0.0012 -0.0011,0.0037 -0.0011,0.0063"
         style="fill:none;stroke:#202d5d;stroke-width:0.0476;stroke-linecap:butt;stroke-linejoin:bevel;stroke-miterlimit:2.61310005;stroke-dasharray:none;stroke-opacity:1"
         id="path831"
         inkscape:connector-curvature="0" /></g><path
       d="m 47.8023,49.1066 h -0.0042 c -0.0564,2.16 -0.2407,4.314 -0.5536,6.4502 l 0.0031,0.0017 c 0.3129,-2.1368 0.498,-4.2919 0.5547,-6.4519 z m -0.5547,6.4519 -0.0031,-0.0017 c -0.2869,1.9525 -0.7617,3.8693 -1.4188,5.7251 l 0.004,0.0012 c 0.6574,-1.8556 1.1307,-3.7738 1.4179,-5.7246 z m -1.4179,5.7246 -0.004,-0.0012 c -0.6015,1.6997 -1.5054,3.2684 -2.6677,4.6276 l 0.0029,0.002 c 1.1613,-1.3592 2.0664,-2.9279 2.6688,-4.6284 z m -2.6688,4.6284 -0.0029,-0.002 c -0.5397,0.6318 -1.3178,0.9935 -2.1361,0.9935 v 0.002 c 0.8195,0 1.5984,-0.3611 2.139,-0.9935 z m -2.139,0.9935 v -0.002 c -0.8181,0 -1.5954,-0.3617 -2.1357,-0.9935 l -0.0022,0.002 c 0.5403,0.6324 1.3195,0.9935 2.1379,0.9935 z m -2.1379,-0.9935 0.0022,-0.002 c -1.1613,-1.3592 -2.0656,-2.9279 -2.6679,-4.6276 l -0.0032,0.0012 c 0.6024,1.7005 1.5064,3.2692 2.6689,4.6284 z m -2.6689,-4.6284 0.0032,-0.0012 C 35.562,59.4261 35.0867,57.5093 34.8007,55.5568 l -0.0034,0.0017 c 0.2854,1.9508 0.7616,3.869 1.4178,5.7246 z m -1.4178,-5.7246 0.0034,-0.0017 c -0.3802,-2.5951 -0.5724,-5.2194 -0.5724,-7.8463 h -0.0034 c 0,2.6269 0.1911,5.2512 0.5724,7.848 z m -0.5724,-7.848 h 0.0034 c 0,-2.0231 0.1134,-4.0439 0.3396,-6.054 l -0.0031,-0.0011 c -0.2262,2.0112 -0.3399,4.032 -0.3399,6.0551 z"
       style="fill:#000004;fill-opacity:1;fill-rule:nonzero;stroke:#202d5d;stroke-width:0.56690001;stroke-linecap:butt;stroke-linejoin:miter;stroke-miterlimit:22.92558479;stroke-dasharray:none;stroke-opacity:1"
       id="path833"
       inkscape:connector-curvature="0" /><path
       d="m 54.5788,49.1071 -0.0042,-5e-4 c -0.1083,2.0987 -0.4609,4.1777 -1.0508,6.1905 l 0.0022,9e-4 c 0.5908,-2.0137 0.9443,-4.0927 1.0528,-6.1909 z m -1.0528,6.1909 -0.0022,-9e-4 c -0.6304,2.147 -1.609,4.1712 -2.8931,5.9848 l 0.0029,0.002 C 51.918,59.47 52.8965,57.4464 53.526,55.298 Z m -2.8924,5.9859 -0.0029,-0.002 c -1.2361,1.7456 -2.821,3.2032 -4.6491,4.2727 l 0.0023,0.0025 c 1.8278,-1.0706 3.4129,-2.5268 4.6497,-4.2732 z m -4.6497,4.2732 -0.0023,-0.0025 c -1.5117,0.8833 -3.2196,1.3484 -4.9597,1.3484 v 0.002 c 1.7401,0 3.4503,-0.464 4.962,-1.3479 z m -4.962,1.3479 v -0.002 c -1.7388,0 -3.4481,-0.4651 -4.9595,-1.3484 l -0.0015,0.0025 c 1.512,0.8839 3.2211,1.3479 4.961,1.3479 z m -4.961,-1.3479 0.0015,-0.0025 c -1.827,-1.0695 -3.4121,-2.5271 -4.6491,-4.2727 l -0.0032,0.002 c 1.2379,1.7464 2.8219,3.2026 4.6508,4.2732 z m -4.6508,-4.2732 0.0032,-0.002 C 30.128,59.4683 29.1515,57.4441 28.5222,55.2971 l -0.0042,9e-4 c 0.6301,2.1484 1.6078,4.172 2.8921,5.9859 z m -2.8921,-5.9859 0.0042,-9e-4 C 27.7997,52.8367 27.4331,50.2804 27.4331,47.7105 H 27.43 c 0,2.5713 0.3668,5.1262 1.088,7.5875 z M 27.43,47.7105 h 0.0031 c 0,-2.5693 0.3666,-5.1256 1.0891,-7.5864 l -0.0042,-5e-4 c -0.7212,2.4599 -1.088,5.0176 -1.088,7.5869 z m 1.088,-7.5869 0.0042,5e-4 c 0.6293,-2.1472 1.6058,-4.1709 2.8911,-5.9848 l -0.0032,-0.0022 c -1.2843,1.8136 -2.262,3.8386 -2.8921,5.9865 z m 2.8921,-5.9865 0.0032,0.0022 c 0.8835,-1.2478 1.9476,-2.351 3.1535,-3.2709 l -0.0011,-0.0028 c -1.2067,0.9193 -2.2711,2.0234 -3.1556,3.2715 z"
       style="fill:#000004;fill-opacity:1;fill-rule:nonzero;stroke:#202d5d;stroke-width:0.56690001;stroke-linecap:butt;stroke-linejoin:miter;stroke-miterlimit:22.92558479;stroke-dasharray:none;stroke-opacity:1"
       id="path835"
       inkscape:connector-curvature="0" /><path
       d="m 47.4792,30.8656 -0.0014,0.0028 c 1.2061,0.9199 2.2694,2.0231 3.1529,3.2709 l 0.0029,-0.0022 C 49.75,32.889 48.687,31.7849 47.4792,30.8656 Z m 3.1544,3.2715 -0.0029,0.0022 c 1.2841,1.8139 2.2627,3.8376 2.8931,5.9848 l 0.0022,-5e-4 c -0.6295,-2.1479 -1.608,-4.1729 -2.8924,-5.9865 z m 2.8924,5.9865 -0.0022,5e-4 c 0.2934,1.0018 0.5281,2.02 0.7035,3.0493 h 0.0043 C 54.055,42.1432 53.8203,41.1248 53.526,40.1236 Z"
       style="fill:#000004;fill-opacity:1;fill-rule:nonzero;stroke:#202d5d;stroke-width:0.56690001;stroke-linecap:butt;stroke-linejoin:miter;stroke-miterlimit:22.92558479;stroke-dasharray:none;stroke-opacity:1"
       id="path837"
       inkscape:connector-curvature="0" /><path
       d="m 61.3582,49.089 -0.0031,-9e-4 C 61.2,51.1226 60.702,53.1128 59.8847,54.9714 l 0.002,0.0026 c 0.8184,-1.8593 1.3167,-3.85 1.4715,-5.885 z m -1.4715,5.885 -0.002,-0.0026 c -1.0528,2.3905 -2.5656,4.5375 -4.4484,6.3105 l 0.0031,0.002 c 1.8828,-1.7731 3.3954,-3.9197 4.4473,-6.3099 z m -4.4473,6.3099 -0.0031,-0.002 c -1.9023,1.7907 -4.1187,3.1944 -6.5324,4.1361 l 0.002,0.0031 c 2.4128,-0.9411 4.6304,-2.3454 6.5335,-4.1372 z m -6.5335,4.1372 -0.002,-0.0031 c -2.518,0.9819 -5.1891,1.485 -7.882,1.485 v 0.002 c 2.6929,0 5.364,-0.5026 7.884,-1.4839 z m -7.884,1.4839 v -0.002 c -2.6918,0 -5.3626,-0.5031 -7.8809,-1.485 l -0.0012,0.0031 c 2.5181,0.9813 5.1886,1.4839 7.8821,1.4839 z M 33.1398,65.4211 33.141,65.418 c -2.4137,-0.9417 -4.6301,-2.3454 -6.5336,-4.1361 l -0.0011,0.002 c 1.9023,1.7918 4.1207,3.1961 6.5335,4.1372 z m -6.5335,-4.1372 0.0011,-0.002 c -1.8828,-1.773 -3.3953,-3.92 -4.4464,-6.3105 l -0.004,0.0026 c 1.0531,2.3902 2.5656,4.5368 4.4493,6.3099 z M 22.157,54.974 22.161,54.9714 c -1.0052,-2.281 -1.5239,-4.7571 -1.5239,-7.2609 H 20.634 c 0,2.5052 0.5198,4.981 1.523,7.2635 z m -1.523,-7.2635 h 0.0031 c 0,-2.5041 0.5187,-4.9794 1.5239,-7.2624 l -0.004,-5e-4 c -1.0032,2.2833 -1.523,4.7582 -1.523,7.2629 z m 1.523,-7.2629 0.004,5e-4 c 1.0511,-2.389 2.5636,-4.5363 4.4464,-6.3088 l -0.0011,-0.0022 c -1.8837,1.7728 -3.3962,3.9203 -4.4493,6.3105 z m 4.4493,-6.3105 0.0011,0.0022 c 1.9035,-1.7912 4.1199,-3.1946 6.5336,-4.1363 l -0.0012,-0.0031 c -2.4128,0.9417 -4.6312,2.3457 -6.5335,4.1372 z m 6.5335,-4.1372 0.0012,0.0031 c 0.4691,-0.1825 0.9459,-0.3489 1.4258,-0.4992 v -0.0045 c -0.4813,0.1514 -0.9587,0.3178 -1.427,0.5006 z"
       style="fill:#000004;fill-opacity:1;fill-rule:nonzero;stroke:#202d5d;stroke-width:0.56690001;stroke-linecap:butt;stroke-linejoin:miter;stroke-miterlimit:22.92558479;stroke-dasharray:none;stroke-opacity:1"
       id="path839"
       inkscape:connector-curvature="0" /><path
       d="m 47.4792,29.4993 -0.0014,0.0045 c 0.4807,0.1503 0.9552,0.3167 1.4261,0.4992 l 0.002,-0.0031 c -0.4712,-0.1828 -0.9465,-0.3492 -1.4267,-0.5006 z m 1.4267,0.5006 -0.002,0.0031 c 2.4137,0.9417 4.6301,2.3451 6.5324,4.1363 l 0.0031,-0.0022 c -1.9031,-1.7915 -4.1207,-3.1955 -6.5335,-4.1372 z m 6.5335,4.1372 -0.0031,0.0022 c 1.8828,1.7725 3.3956,3.9198 4.4484,6.3088 l 0.002,-5e-4 c -1.0519,-2.3902 -2.5645,-4.5377 -4.4473,-6.3105 z m 4.4473,6.3105 -0.002,5e-4 c 0.3802,0.8669 0.6922,1.7632 0.9332,2.6802 h 0.0031 c -0.2407,-0.9184 -0.553,-1.8139 -0.9343,-2.6807 z"
       style="fill:#000004;fill-opacity:1;fill-rule:nonzero;stroke:#202d5d;stroke-width:0.56690001;stroke-linecap:butt;stroke-linejoin:miter;stroke-miterlimit:22.92558479;stroke-dasharray:none;stroke-opacity:1"
       id="path841"
       inkscape:connector-curvature="0" /><path
       d="m 27.7594,30.8489 9e-4,0.0022 c 0.8007,-0.3157 1.614,-0.5947 2.4383,-0.835 l -0.0017,-0.0037 c -0.8237,0.2412 -1.637,0.5199 -2.4375,0.8365 z m 2.4375,-0.8365 0.0017,0.0037 c 1.425,-0.417 2.8726,-0.7512 4.3348,-1.0007 v -0.0025 c -1.463,0.2483 -2.9098,0.5828 -4.3365,0.9995 z"
       style="fill:#000004;fill-opacity:1;fill-rule:nonzero;stroke:#202d5d;stroke-width:0.56690001;stroke-linecap:butt;stroke-linejoin:miter;stroke-miterlimit:22.92558479;stroke-dasharray:none;stroke-opacity:1"
       id="path843"
       inkscape:connector-curvature="0" /><path
       d="m 48.8211,29.3153 v 0.0032 c 1.0066,0.2086 2.0047,0.4583 2.9917,0.7475 l 8e-4,-0.0037 c -0.9878,-0.2892 -1.9859,-0.5383 -2.9925,-0.747 z m 2.9925,0.747 -8e-4,0.0037 c 0.9266,0.2712 1.838,0.589 2.734,0.9541 l 9e-4,-0.004 C 53.6528,30.6519 52.7394,30.333 51.8136,30.0623 Z"
       style="fill:#000004;fill-opacity:1;fill-rule:nonzero;stroke:#202d5d;stroke-width:0.56690001;stroke-linecap:butt;stroke-linejoin:miter;stroke-miterlimit:22.92558479;stroke-dasharray:none;stroke-opacity:1"
       id="path845"
       inkscape:connector-curvature="0" /><path
       d="m 68.1367,49.0955 h -0.0032 c -0.1992,1.9641 -0.8161,3.8588 -1.8082,5.5511 l 0.0031,5e-4 c 0.9919,-1.6925 1.6098,-3.5875 1.8083,-5.5516 z m -1.8083,5.5516 -0.0031,-5e-4 c -0.1811,0.3073 -0.369,0.6123 -0.5652,0.9102 l 0.002,0.0025 c 0.1984,-0.2996 0.3855,-0.6023 0.5663,-0.9122 z"
       style="fill:#000004;fill-opacity:1;fill-rule:nonzero;stroke:#202d5d;stroke-width:0.56690001;stroke-linecap:butt;stroke-linejoin:miter;stroke-miterlimit:22.92558479;stroke-dasharray:none;stroke-opacity:1"
       id="path847"
       inkscape:connector-curvature="0" /><path
       d="m 65.1722,56.4129 c -1.3734,1.889 -3.0379,3.5345 -4.9289,4.869 -2.577,1.8196 -5.4238,3.1964 -8.4297,4.0757 -3.509,1.025 -7.141,1.5463 -10.7917,1.5463 -3.6494,0 -7.2805,-0.5213 -10.7898,-1.5463 -3.0079,-0.8793 -5.8544,-2.2561 -8.4306,-4.0757 -2.4652,-1.7407 -4.5394,-4.0036 -6.084,-6.6353 -1.2276,-2.094 -1.8773,-4.4912 -1.8773,-6.9361 0,-2.4449 0.6497,-4.843 1.8773,-6.9361 1.5446,-2.632 3.6188,-4.8943 6.084,-6.6362 1.8672,-1.3181 3.8781,-2.4046 5.9922,-3.2389 l 2.2258,-0.7724 -0.0219,-5.9434 -2.1741,0.3946 c -1.0599,0.2097 -2.1141,0.4445 -3.1629,0.705 -4.3781,1.0868 -8.5782,2.8227 -12.4696,5.1542 -3.6641,2.1954 -6.8301,5.1681 -9.2863,8.7216 -1.7278,2.4991 -2.6555,5.4868 -2.6555,8.5516 0,3.0648 0.9277,6.0531 2.6555,8.5524 2.4562,3.5521 5.6222,6.5262 9.2863,8.7222 3.8914,2.3315 8.0915,4.0672 12.4696,5.152 5.3577,1.3308 10.8496,2.0026 16.3613,2.0026 5.5116,0 11.0046,-0.6718 16.3621,-2.0026 4.3773,-1.0848 8.5776,-2.8205 12.469,-5.152 3.5215,-2.111 6.5841,-4.9391 8.9989,-8.3137 l 0.7152,-1.0613 -13.805,-0.0516 c -0.1902,0.2897 -0.3872,0.5746 -0.5899,0.8544"
       style="fill:#000004;fill-opacity:1;fill-rule:evenodd;stroke:none"
       id="path849"
       inkscape:connector-curvature="0" /><path
       d="m 65.1722,56.4129 c -1.3734,1.889 -3.0379,3.5345 -4.9289,4.869 -2.577,1.8196 -5.4238,3.1964 -8.4297,4.0757 -3.509,1.025 -7.141,1.5463 -10.7917,1.5463 -3.6494,0 -7.2805,-0.5213 -10.7898,-1.5463 -3.0079,-0.8793 -5.8544,-2.2561 -8.4306,-4.0757 -2.4652,-1.7407 -4.5394,-4.0036 -6.084,-6.6353 -1.2276,-2.094 -1.8773,-4.4912 -1.8773,-6.9361 0,-2.4449 0.6497,-4.843 1.8773,-6.9361 1.5446,-2.632 3.6188,-4.8943 6.084,-6.6362 1.8672,-1.3181 3.8781,-2.4046 5.9922,-3.2389 l 2.2258,-0.7724 -0.0219,-5.9434 -2.1741,0.3946 c -1.0599,0.2097 -2.1141,0.4445 -3.1629,0.705 -4.3781,1.0868 -8.5782,2.8227 -12.4696,5.1542 -3.6641,2.1954 -6.8301,5.1681 -9.2863,8.7216 -1.7278,2.4991 -2.6555,5.4868 -2.6555,8.5516 0,3.0648 0.9277,6.0531 2.6555,8.5524 2.4562,3.5521 5.6222,6.5262 9.2863,8.7222 3.8914,2.3315 8.0915,4.0672 12.4696,5.152 5.3577,1.3308 10.8496,2.0026 16.3613,2.0026 5.5116,0 11.0046,-0.6718 16.3621,-2.0026 4.3773,-1.0848 8.5776,-2.8205 12.469,-5.152 3.5215,-2.111 6.5841,-4.9391 8.9989,-8.3137 l 0.7152,-1.0613 -13.805,-0.0516 c -0.1902,0.2897 -0.3872,0.5746 -0.5899,0.8544 z"
       style="fill:#202d5d;fill-opacity:1;fill-rule:evenodd;stroke:#202d5d;stroke-width:0.498;stroke-linecap:butt;stroke-linejoin:miter;stroke-miterlimit:22.92560387;stroke-dasharray:none;stroke-opacity:1"
       id="path851"
       inkscape:connector-curvature="0" /><path
       d="m 60.4613,43.1283 v 5.9598 l 21.191,9e-4 0.1425,-1.3785 c 0,-3.0648 -0.928,-6.0525 -2.6566,-8.5516 -2.4551,-3.5535 -5.62,-6.5262 -9.2852,-8.7216 -3.8914,-2.3315 -8.0917,-4.0674 -12.469,-5.1542 -0.9578,-0.2373 -1.9208,-0.4544 -2.8879,-0.65 l 0.0516,6.3847 c 2.006,0.8181 3.9163,1.8644 5.6956,3.1204 2.4647,1.7419 4.5394,4.0042 6.084,6.6362 0.4422,0.7461 0.8175,1.535 1.1191,2.3525 h -0.028 z"
       style="fill:#000004;fill-opacity:1;fill-rule:evenodd;stroke:#202d5d;stroke-width:0.56690001;stroke-linecap:butt;stroke-linejoin:miter;stroke-miterlimit:22.92558479;stroke-dasharray:none;stroke-opacity:1"
       id="path853"
       inkscape:connector-curvature="0" /><path
       d="m 60.4613,43.1283 v 5.9598 l 21.191,9e-4 0.1425,-1.3785 c 0,-3.0648 -0.928,-6.0525 -2.6566,-8.5516 -2.4551,-3.5535 -5.62,-6.5262 -9.2852,-8.7216 -3.8914,-2.3315 -8.0917,-4.0674 -12.469,-5.1542 -0.9578,-0.2373 -1.9208,-0.4544 -2.8879,-0.65 l 0.0516,6.3847 c 2.006,0.8181 3.9163,1.8644 5.6956,3.1204 2.4647,1.7419 4.5394,4.0042 6.084,6.6362 0.4422,0.7461 0.8175,1.535 1.1191,2.3525 h -0.028 z"
       style="fill:#202d5d;fill-opacity:1;fill-rule:evenodd;stroke:#202d5d;stroke-width:0.498;stroke-linecap:butt;stroke-linejoin:miter;stroke-miterlimit:22.92560387;stroke-dasharray:none;stroke-opacity:1"
       id="path855"
       inkscape:connector-curvature="0" /><path
       d="m 41.021,49.1066 h 0.0034 V 66.9039 H 41.021 Z"
       style="fill:#000004;fill-opacity:1;fill-rule:evenodd;stroke:#202d5d;stroke-width:0.56690001;stroke-linecap:butt;stroke-linejoin:miter;stroke-miterlimit:22.92558479;stroke-dasharray:none;stroke-opacity:1"
       id="path857"
       inkscape:connector-curvature="0" /><path
       d="m 22.3639,61.6683 h 37.3162 v 0.004 H 22.3639 Z"
       style="fill:#000004;fill-opacity:1;fill-rule:evenodd;stroke:#202d5d;stroke-width:0.56690001;stroke-linecap:butt;stroke-linejoin:miter;stroke-miterlimit:22.92558479;stroke-dasharray:none;stroke-opacity:1"
       id="path859"
       inkscape:connector-curvature="0" /><g
       id="g861"
       transform="scale(0.97,1)"><path
         d="M 23.0556,61.6686 H 61.5257 V 61.672 H 23.0556 Z"
         style="fill:#000004;fill-opacity:1;fill-rule:evenodd;stroke:#202d5d;stroke-width:0.4226;stroke-linecap:butt;stroke-linejoin:bevel;stroke-miterlimit:2.61310005;stroke-dasharray:none;stroke-opacity:1"
         id="path863"
         inkscape:connector-curvature="0" /></g><g
       id="g865"
       transform="scale(0.97,1)"><path
         d="m 16.2295,54.6721 h 52.1234 v 0.0363 H 16.2295 Z"
         style="fill:#000004;fill-opacity:1;fill-rule:evenodd;stroke:#202d5d;stroke-width:0.4226;stroke-linecap:butt;stroke-linejoin:bevel;stroke-miterlimit:2.61310005;stroke-dasharray:none;stroke-opacity:1"
         id="path867"
         inkscape:connector-curvature="0" /></g><path
       d="m 13.8402,47.7085 h 20.3859 v 0.0031 H 13.8402 Z"
       style="fill:#000004;fill-opacity:1;fill-rule:evenodd;stroke:#202d5d;stroke-width:0.56690001;stroke-linecap:butt;stroke-linejoin:miter;stroke-miterlimit:22.92558479;stroke-dasharray:none;stroke-opacity:1"
       id="path869"
       inkscape:connector-curvature="0" /><g
       id="g871"
       transform="scale(0.97,1)"><path
         d="m 14.2682,47.7088 h 21.0172 v 0.0028 H 14.2682 Z"
         style="fill:#000004;fill-opacity:1;fill-rule:evenodd;stroke:#202d5d;stroke-width:0.4226;stroke-linecap:butt;stroke-linejoin:bevel;stroke-miterlimit:2.61310005;stroke-dasharray:none;stroke-opacity:1"
         id="path873"
         inkscape:connector-curvature="0" /></g><path
       d="m 56.3125,47.7085 h 4.1496 v 0.0031 h -4.1496 z"
       style="fill:#000004;fill-opacity:1;fill-rule:evenodd;stroke:#202d5d;stroke-width:0.56690001;stroke-linecap:butt;stroke-linejoin:miter;stroke-miterlimit:22.92558479;stroke-dasharray:none;stroke-opacity:1"
       id="path875"
       inkscape:connector-curvature="0" /><g
       id="g877"
       transform="scale(0.97,1)"><path
         d="m 58.0541,47.7088 h 4.2792 v 0.0028 h -4.2792 z"
         style="fill:#000004;fill-opacity:1;fill-rule:evenodd;stroke:#202d5d;stroke-width:0.4226;stroke-linecap:butt;stroke-linejoin:bevel;stroke-miterlimit:2.61310005;stroke-dasharray:none;stroke-opacity:1"
         id="path879"
         inkscape:connector-curvature="0" /></g><path
       d="m 15.7425,40.729 h 18.8243 v 0.0032 H 15.7425 Z"
       style="fill:#000004;fill-opacity:1;fill-rule:evenodd;stroke:#202d5d;stroke-width:0.56690001;stroke-linecap:butt;stroke-linejoin:miter;stroke-miterlimit:22.92558479;stroke-dasharray:none;stroke-opacity:1"
       id="path881"
       inkscape:connector-curvature="0" /><g
       id="g883"
       transform="scale(0.97,1)"><path
         d="m 16.2295,40.729 h 19.4062 v 0.0032 H 16.2295 Z"
         style="fill:#000004;fill-opacity:1;fill-rule:evenodd;stroke:#202d5d;stroke-width:0.4226;stroke-linecap:butt;stroke-linejoin:bevel;stroke-miterlimit:2.61310005;stroke-dasharray:none;stroke-opacity:1"
         id="path885"
         inkscape:connector-curvature="0" /></g><path
       d="m 47.4778,40.729 h 18.8237 v 0.0032 H 47.4778 Z"
       style="fill:#000004;fill-opacity:1;fill-rule:evenodd;stroke:#202d5d;stroke-width:0.56690001;stroke-linecap:butt;stroke-linejoin:miter;stroke-miterlimit:22.92558479;stroke-dasharray:none;stroke-opacity:1"
       id="path887"
       inkscape:connector-curvature="0" /><path
       d="m 47.4778,33.7496 h 12.2023 v 0.0031 H 47.4778 Z"
       style="fill:#000004;fill-opacity:1;fill-rule:evenodd;stroke:#202d5d;stroke-width:0.56690001;stroke-linecap:butt;stroke-linejoin:miter;stroke-miterlimit:22.92558479;stroke-dasharray:none;stroke-opacity:1"
       id="path889"
       inkscape:connector-curvature="0" /><path
       d="m 22.3639,33.7496 h 12.2029 v 0.0031 H 22.3639 Z"
       style="fill:#000004;fill-opacity:1;fill-rule:evenodd;stroke:#202d5d;stroke-width:0.56690001;stroke-linecap:butt;stroke-linejoin:miter;stroke-miterlimit:22.92558479;stroke-dasharray:none;stroke-opacity:1"
       id="path891"
       inkscape:connector-curvature="0" /><g
       id="g893"
       transform="scale(0.97,1)"><path
         d="M 23.0556,33.7496 H 35.6357 V 33.753 H 23.0556 Z"
         style="fill:#000004;fill-opacity:1;fill-rule:evenodd;stroke:#202d5d;stroke-width:0.4226;stroke-linecap:butt;stroke-linejoin:bevel;stroke-miterlimit:2.61310005;stroke-dasharray:none;stroke-opacity:1"
         id="path895"
         inkscape:connector-curvature="0" /></g><g
       id="g897"
       transform="scale(0.96,1)"><path
         d="m 51.5441,29.3173 h 0.036"
         style="fill:none;stroke:#202d5d;stroke-width:0.0476;stroke-linecap:butt;stroke-linejoin:bevel;stroke-miterlimit:2.61310005;stroke-dasharray:none;stroke-opacity:1"
         id="path899"
         inkscape:connector-curvature="0" /></g><path
       d="M 49.5003,29.3176 49.5167,29.215 V 23.6843 H 47.4778 V 0.2492 H 34.5668 V 49.1066 H 56.3125 V 43.1734 H 47.4778 V 29.3176 Z"
       style="fill:#000004;fill-opacity:1;fill-rule:evenodd;stroke:none"
       id="path901"
       inkscape:connector-curvature="0" /><path
       d="M 49.5003,29.3176 49.5167,29.215 V 23.6843 H 47.4778 V 0.2492 H 34.5668 V 49.1066 H 56.3125 V 43.1734 H 47.4778 V 29.3176 Z"
       style="fill:#202d5d;fill-opacity:1;fill-rule:evenodd;stroke:#202d5d;stroke-width:0.498;stroke-linecap:butt;stroke-linejoin:miter;stroke-miterlimit:22.92560387;stroke-dasharray:none;stroke-opacity:1"
       id="path903"
       inkscape:connector-curvature="0" /></g></svg>